<svg xmlns="http://www.w3.org/2000/svg" width="43" height="40" viewBox="0 0 43 40" fill="none"><path d="M6.99391 35.9888L15.642 25.0651C16.0861 24.6049 16.3573 24.0032 16.4081 23.3632C16.4147 23.1615 16.3708 22.9612 16.2813 22.7806C16.1917 22.6001 16.0597 22.445 15.8957 22.3293C15.4949 22.0509 15.0148 21.9129 14.5286 21.9364C14.3136 21.9431 14.0991 21.9615 13.886 21.9915L0 23.8798V16.1198L13.886 18.0287C14.099 18.059 14.3136 18.0774 14.5286 18.0838C15.0167 18.1059 15.4977 17.9631 15.8957 17.6774C16.059 17.5593 16.1902 17.4029 16.2796 17.2215C16.369 17.0401 16.4134 16.8392 16.4081 16.6368C16.3652 16.0063 16.1045 15.411 15.6704 14.955L6.9672 3.87326L13.9811 0L19.204 12.9566C19.3606 13.4404 19.6371 13.8762 20.0052 14.2244C20.1369 14.3654 20.2946 14.4778 20.471 14.5546C20.6473 14.6314 20.838 14.6711 21.0301 14.6711C21.2223 14.6711 21.4129 14.6314 21.5893 14.5546C21.7657 14.4778 21.9233 14.3654 22.055 14.2244C22.4176 13.8729 22.6913 13.4379 22.8495 12.9566L28.0307 0L35.1698 3.87326L26.3832 14.955C25.9381 15.4257 25.6673 16.0365 25.6171 16.6847C25.6135 16.8806 25.657 17.0748 25.7439 17.2501C25.8308 17.4253 25.9585 17.5767 26.1162 17.6913C26.5307 17.9733 27.0256 18.1108 27.525 18.0838C27.7541 18.089 27.9839 18.0706 28.2093 18.0287L42.0202 16.1198V23.8798L28.2093 21.9915C27.9635 21.9473 27.7128 21.9288 27.4632 21.9364C26.9813 21.9076 26.5031 22.0331 26.0961 22.2948C25.941 22.4065 25.8147 22.5547 25.7289 22.7264C25.6431 22.8981 25.6003 23.0882 25.6037 23.2804C25.663 23.9439 25.9343 24.57 26.3765 25.0651L35.1281 35.9888L28.0174 40L22.8078 27.0569C22.6455 26.5775 22.3741 26.1434 22.015 25.7891C21.8833 25.6481 21.7239 25.5357 21.5476 25.4589C21.3712 25.3821 21.1805 25.3423 20.9884 25.3423C20.7963 25.3423 20.6073 25.3821 20.4309 25.4589C20.2545 25.5357 20.0952 25.6481 19.9635 25.7891C19.6019 26.1467 19.3211 26.5791 19.1423 27.0569L13.9194 40L6.99391 35.9888Z" fill="#BFF747"></path></svg>